<svg xmlns="http://www.w3.org/2000/svg" width="26.244" height="30.005" viewBox="0 0 26.244 30.005">
  <g id="csv" transform="translate(-0.033)">
    <path id="Path_33" data-name="Path 33" d="M2.412,0A2.379,2.379,0,0,0,.033,2.379V27.626A2.379,2.379,0,0,0,2.412,30H23.876a2.379,2.379,0,0,0,2.379-2.379V9.523L17.391,0H2.412Z" fill="#b5c4d0" fill-rule="evenodd"/>
    <path id="Path_34" data-name="Path 34" d="M14.894,42.288a.368.368,0,0,1,.093.245.337.337,0,0,1-.33.338.3.3,0,0,1-.236-.11,1.9,1.9,0,0,0-1.41-.65,2.291,2.291,0,0,0,0,4.576,1.862,1.862,0,0,0,1.41-.642.327.327,0,0,1,.236-.109.338.338,0,0,1,.33.346.363.363,0,0,1-.093.236,2.508,2.508,0,0,1-1.883.794,2.913,2.913,0,0,1,0-5.826A2.471,2.471,0,0,1,14.894,42.288Zm3.19,5.024a2.919,2.919,0,0,1-1.976-.7.333.333,0,0,1-.11-.253A.346.346,0,0,1,16.327,46a.309.309,0,0,1,.2.068,2.362,2.362,0,0,0,1.579.616c1,0,1.326-.54,1.326-.971,0-1.452-3.335-.65-3.335-2.66,0-.928.827-1.562,1.933-1.562a2.784,2.784,0,0,1,1.807.6.335.335,0,0,1-.211.591.319.319,0,0,1-.2-.076,2.264,2.264,0,0,0-1.444-.49c-.675,0-1.157.363-1.157.9,0,1.267,3.335.54,3.335,2.643,0,.82-.557,1.656-2.076,1.656Zm7.969-5.277L24.1,46.881a.614.614,0,0,1-.557.38h-.017a.617.617,0,0,1-.566-.38l-1.942-4.846a.35.35,0,0,1-.025-.135.387.387,0,0,1,.38-.372.364.364,0,0,1,.338.228l1.824,4.685,1.824-4.685a.36.36,0,0,1,.338-.228.377.377,0,0,1,.38.372.381.381,0,0,1-.024.135Z" transform="translate(-5.354 -22.033)" fill="#55768b" stroke="#99adb9" stroke-width="0.5"/>
    <g id="Group_4" data-name="Group 4" transform="translate(17.413 0.003)">
      <path id="Path_36" data-name="Path 36" d="M37.1.006V6.834A2.71,2.71,0,0,0,39.96,9.549h6L37.1.006Z" transform="translate(-37.098 -0.006)" fill="#55768b" fill-rule="evenodd" opacity="0.5"/>
    </g>
  </g>
</svg>
