<svg xmlns="http://www.w3.org/2000/svg" width="80" height="68.871" viewBox="0 0 80 68.871">
  <g id="TriangleLogo-Bulk-32px" transform="translate(-1.11 -2.705)">
    <path id="Path_18" data-name="Path 18" d="M34.252,3.235,1.666,35.821a1.835,1.835,0,0,0,0,2.632L34.252,71.039a1.847,1.847,0,0,0,3.151-1.3v-9.6a1.742,1.742,0,0,0-.556-1.3L16.458,38.453a1.835,1.835,0,0,1,0-2.632L36.847,15.432a1.891,1.891,0,0,0,.556-1.3v-9.6a1.854,1.854,0,0,0-3.151-1.3Z" transform="translate(0)" fill="#318dc1" opacity="0.4"/>
    <path id="Path_19" data-name="Path 19" d="M29.018,3.235,61.6,35.821a1.835,1.835,0,0,1,0,2.632L29.018,71.039a1.854,1.854,0,0,1-3.151-1.3v-9.6a1.739,1.739,0,0,1,.556-1.3L46.812,38.453a1.835,1.835,0,0,0,0-2.632L26.423,15.432a1.891,1.891,0,0,1-.556-1.3v-9.6a1.854,1.854,0,0,1,3.151-1.3ZM15.3,29.185,8.666,35.821a1.835,1.835,0,0,0,0,2.632L15.3,45.089a1.847,1.847,0,0,0,3.151-1.3V30.483a1.854,1.854,0,0,0-3.151-1.3Z" transform="translate(18.95)" fill="#318dc1"/>
  </g>
</svg>
