<svg xmlns="http://www.w3.org/2000/svg" width="134" height="36.158" viewBox="0 0 134 36.158">
  <g id="Group_12" data-name="Group 12" transform="translate(-729.5 -142.921)">
    <g id="TriangleLogo-Bulk-32px" transform="translate(820.389 140.216)">
      <path id="Path_18" data-name="Path 18" d="M18.51,2.983,1.4,20.091a.964.964,0,0,0,0,1.382L18.51,38.581a.97.97,0,0,0,1.654-.681V32.859a.915.915,0,0,0-.292-.681l-10.7-10.7a.964.964,0,0,1,0-1.382l10.7-10.7a.993.993,0,0,0,.292-.681V3.665a.973.973,0,0,0-1.654-.681Z" transform="translate(0)" fill="#318dc1" opacity="0.4"/>
      <path id="Path_19" data-name="Path 19" d="M19.087,2.983,36.2,20.091a.964.964,0,0,1,0,1.382L19.087,38.581a.973.973,0,0,1-1.654-.681V32.859a.913.913,0,0,1,.292-.681l10.7-10.7a.964.964,0,0,0,0-1.382l-10.7-10.7a.993.993,0,0,1-.292-.681V3.665a.973.973,0,0,1,1.654-.681Zm-7.2,13.624L8.4,20.091a.964.964,0,0,0,0,1.382l3.484,3.484a.97.97,0,0,0,1.654-.681V17.289a.973.973,0,0,0-1.654-.681Z" transform="translate(6.624)" fill="#318dc1"/>
    </g>
    <text id="سامانه_نوین" data-name="سامانه نوین" transform="translate(809.5 165.327)" fill="#318dc1" font-size="16" font-family="SegoeUI, Segoe UI"><tspan x="-79.203" y="0">سامانه نوین</tspan></text>
  </g>
</svg>
