<svg id="Group_133" data-name="Group 133" xmlns="http://www.w3.org/2000/svg" width="48" height="48" viewBox="0 0 48 48">
  <g id="Ellipse_1" data-name="Ellipse 1" fill="none" stroke="#fff" stroke-width="1.5">
    <circle cx="24" cy="24" r="24" stroke="none"/>
    <circle cx="24" cy="24" r="23.25" fill="none"/>
  </g>
  <path id="Path_160" data-name="Path 160" d="M29.3,22.744l-4.34-10.136c-1.47-3.439-4.174-3.577-5.99-.305l-2.621,4.728c-1.331,2.4-3.813,2.607-5.533.458l-.305-.388c-1.789-2.246-4.312-1.969-5.6.6L2.521,22.48a5,5,0,0,0,4.465,7.252H24.679A5.016,5.016,0,0,0,29.3,22.744ZM8.9,10.32A4.16,4.16,0,1,0,4.74,6.16,4.16,4.16,0,0,0,8.9,10.32Z" transform="translate(8.157 8.133)" fill="none" stroke="#fff" stroke-linecap="round" stroke-linejoin="round" stroke-width="1.5"/>
</svg>
